<mxfile host="app.diagrams.net" modified="2024-07-12T11:10:26.865Z" agent="Mozilla/5.0 (Windows NT 10.0; Win64; x64) AppleWebKit/537.36 (KHTML, like Gecko) Chrome/126.0.0.0 Safari/537.36 Edg/126.0.0.0" etag="ONgNdNxnzDxtuBXqwIha" version="24.6.4" type="device">
  <diagram name="Page-1" id="sgVEz1wbZtfejlkAXjMf">
    <mxGraphModel dx="2215" dy="661" grid="1" gridSize="10" guides="1" tooltips="1" connect="1" arrows="1" fold="1" page="1" pageScale="1" pageWidth="850" pageHeight="1100" math="0" shadow="0">
      <root>
        <mxCell id="0" />
        <mxCell id="1" parent="0" />
        <mxCell id="m--bQhXCmjaqSafVyq63-18" value="On-Premise" style="sketch=0;outlineConnect=0;gradientColor=none;html=1;whiteSpace=wrap;fontSize=12;fontStyle=0;shape=mxgraph.aws4.group;grIcon=mxgraph.aws4.group_on_premise;strokeColor=#AAB7B8;fillColor=none;verticalAlign=top;align=left;spacingLeft=30;fontColor=#AAB7B8;dashed=0;" vertex="1" parent="1">
          <mxGeometry x="-190" y="250" width="260" height="1000" as="geometry" />
        </mxCell>
        <mxCell id="m--bQhXCmjaqSafVyq63-36" style="edgeStyle=orthogonalEdgeStyle;rounded=0;orthogonalLoop=1;jettySize=auto;html=1;" edge="1" parent="1" source="m--bQhXCmjaqSafVyq63-19" target="m--bQhXCmjaqSafVyq63-34">
          <mxGeometry relative="1" as="geometry" />
        </mxCell>
        <mxCell id="m--bQhXCmjaqSafVyq63-19" value="Garbage&lt;div&gt;Legacy System&lt;/div&gt;&lt;div&gt;&lt;br&gt;&lt;/div&gt;&lt;div&gt;(Old Data, Analytics)&lt;/div&gt;" style="shape=datastore;whiteSpace=wrap;html=1;" vertex="1" parent="1">
          <mxGeometry x="-115" y="400" width="160" height="140" as="geometry" />
        </mxCell>
        <mxCell id="m--bQhXCmjaqSafVyq63-113" style="edgeStyle=orthogonalEdgeStyle;rounded=0;orthogonalLoop=1;jettySize=auto;html=1;entryX=0;entryY=0.5;entryDx=0;entryDy=0;" edge="1" parent="1" source="m--bQhXCmjaqSafVyq63-20" target="m--bQhXCmjaqSafVyq63-94">
          <mxGeometry relative="1" as="geometry" />
        </mxCell>
        <mxCell id="m--bQhXCmjaqSafVyq63-20" value="Shiny New Snowflake&lt;div&gt;Data Warehouse&lt;/div&gt;" style="shape=datastore;whiteSpace=wrap;html=1;" vertex="1" parent="1">
          <mxGeometry x="990" y="350" width="230" height="220" as="geometry" />
        </mxCell>
        <mxCell id="m--bQhXCmjaqSafVyq63-33" style="edgeStyle=orthogonalEdgeStyle;rounded=0;orthogonalLoop=1;jettySize=auto;html=1;entryX=0;entryY=0.5;entryDx=0;entryDy=0;entryPerimeter=0;" edge="1" parent="1" source="m--bQhXCmjaqSafVyq63-19" target="m--bQhXCmjaqSafVyq63-32">
          <mxGeometry relative="1" as="geometry" />
        </mxCell>
        <mxCell id="m--bQhXCmjaqSafVyq63-37" style="edgeStyle=orthogonalEdgeStyle;rounded=0;orthogonalLoop=1;jettySize=auto;html=1;entryX=0;entryY=0.5;entryDx=0;entryDy=0;entryPerimeter=0;" edge="1" parent="1" source="m--bQhXCmjaqSafVyq63-19" target="m--bQhXCmjaqSafVyq63-35">
          <mxGeometry relative="1" as="geometry" />
        </mxCell>
        <mxCell id="m--bQhXCmjaqSafVyq63-41" value="S3 Glacier for Old Data,&amp;nbsp; Infrequently Accessed Data&lt;div&gt;(for compliance etc)&lt;/div&gt;" style="sketch=0;points=[[0,0,0],[0.25,0,0],[0.5,0,0],[0.75,0,0],[1,0,0],[0,1,0],[0.25,1,0],[0.5,1,0],[0.75,1,0],[1,1,0],[0,0.25,0],[0,0.5,0],[0,0.75,0],[1,0.25,0],[1,0.5,0],[1,0.75,0]];outlineConnect=0;fontColor=#232F3E;fillColor=#7AA116;strokeColor=#ffffff;dashed=0;verticalLabelPosition=bottom;verticalAlign=top;align=center;html=1;fontSize=12;fontStyle=0;aspect=fixed;shape=mxgraph.aws4.resourceIcon;resIcon=mxgraph.aws4.glacier;" vertex="1" parent="1">
          <mxGeometry x="510" y="770" width="90" height="90" as="geometry" />
        </mxCell>
        <mxCell id="m--bQhXCmjaqSafVyq63-50" style="edgeStyle=orthogonalEdgeStyle;rounded=0;orthogonalLoop=1;jettySize=auto;html=1;exitX=1;exitY=0.5;exitDx=0;exitDy=0;entryX=0;entryY=0.5;entryDx=0;entryDy=0;" edge="1" parent="1" source="m--bQhXCmjaqSafVyq63-43" target="m--bQhXCmjaqSafVyq63-20">
          <mxGeometry relative="1" as="geometry" />
        </mxCell>
        <mxCell id="m--bQhXCmjaqSafVyq63-45" value="Unused data&lt;div&gt;(delete for good)&lt;/div&gt;" style="html=1;verticalLabelPosition=bottom;align=center;labelBackgroundColor=#ffffff;verticalAlign=top;strokeWidth=2;strokeColor=#0080F0;shadow=0;dashed=0;shape=mxgraph.ios7.icons.trashcan;" vertex="1" parent="1">
          <mxGeometry x="280" y="760" width="90" height="90" as="geometry" />
        </mxCell>
        <mxCell id="m--bQhXCmjaqSafVyq63-60" style="edgeStyle=orthogonalEdgeStyle;rounded=0;orthogonalLoop=1;jettySize=auto;html=1;exitX=0.5;exitY=1;exitDx=0;exitDy=0;entryX=0.504;entryY=-0.074;entryDx=0;entryDy=0;entryPerimeter=0;" edge="1" parent="1" source="m--bQhXCmjaqSafVyq63-55" target="m--bQhXCmjaqSafVyq63-45">
          <mxGeometry relative="1" as="geometry" />
        </mxCell>
        <mxCell id="m--bQhXCmjaqSafVyq63-76" style="edgeStyle=orthogonalEdgeStyle;rounded=0;orthogonalLoop=1;jettySize=auto;html=1;entryX=0;entryY=0.5;entryDx=0;entryDy=0;" edge="1" parent="1" source="m--bQhXCmjaqSafVyq63-73" target="m--bQhXCmjaqSafVyq63-20">
          <mxGeometry relative="1" as="geometry" />
        </mxCell>
        <mxCell id="m--bQhXCmjaqSafVyq63-94" value="Data Warehouse" style="swimlane;whiteSpace=wrap;html=1;startSize=23;" vertex="1" parent="1">
          <mxGeometry x="1260" y="245" width="580" height="450" as="geometry" />
        </mxCell>
        <mxCell id="m--bQhXCmjaqSafVyq63-108" style="edgeStyle=orthogonalEdgeStyle;rounded=0;orthogonalLoop=1;jettySize=auto;html=1;exitX=0.5;exitY=0;exitDx=0;exitDy=0;entryX=1;entryY=0.5;entryDx=0;entryDy=0;" edge="1" parent="m--bQhXCmjaqSafVyq63-94" source="m--bQhXCmjaqSafVyq63-77" target="m--bQhXCmjaqSafVyq63-81">
          <mxGeometry relative="1" as="geometry" />
        </mxCell>
        <mxCell id="m--bQhXCmjaqSafVyq63-111" style="edgeStyle=orthogonalEdgeStyle;rounded=0;orthogonalLoop=1;jettySize=auto;html=1;entryX=0;entryY=0.5;entryDx=0;entryDy=0;" edge="1" parent="m--bQhXCmjaqSafVyq63-94" source="m--bQhXCmjaqSafVyq63-77" target="m--bQhXCmjaqSafVyq63-98">
          <mxGeometry relative="1" as="geometry" />
        </mxCell>
        <mxCell id="m--bQhXCmjaqSafVyq63-112" style="edgeStyle=orthogonalEdgeStyle;rounded=0;orthogonalLoop=1;jettySize=auto;html=1;entryX=1;entryY=0.5;entryDx=0;entryDy=0;" edge="1" parent="m--bQhXCmjaqSafVyq63-94" source="m--bQhXCmjaqSafVyq63-77" target="m--bQhXCmjaqSafVyq63-102">
          <mxGeometry relative="1" as="geometry" />
        </mxCell>
        <mxCell id="m--bQhXCmjaqSafVyq63-77" value="Fact" style="swimlane;fontStyle=0;childLayout=stackLayout;horizontal=1;startSize=26;fillColor=none;horizontalStack=0;resizeParent=1;resizeParentMax=0;resizeLast=0;collapsible=1;marginBottom=0;html=1;" vertex="1" parent="m--bQhXCmjaqSafVyq63-94">
          <mxGeometry x="220" y="190" width="140" height="104" as="geometry" />
        </mxCell>
        <mxCell id="m--bQhXCmjaqSafVyq63-78" value="Item 1" style="text;strokeColor=none;fillColor=none;align=left;verticalAlign=top;spacingLeft=4;spacingRight=4;overflow=hidden;rotatable=0;points=[[0,0.5],[1,0.5]];portConstraint=eastwest;whiteSpace=wrap;html=1;" vertex="1" parent="m--bQhXCmjaqSafVyq63-77">
          <mxGeometry y="26" width="140" height="26" as="geometry" />
        </mxCell>
        <mxCell id="m--bQhXCmjaqSafVyq63-79" value="Item 2" style="text;strokeColor=none;fillColor=none;align=left;verticalAlign=top;spacingLeft=4;spacingRight=4;overflow=hidden;rotatable=0;points=[[0,0.5],[1,0.5]];portConstraint=eastwest;whiteSpace=wrap;html=1;" vertex="1" parent="m--bQhXCmjaqSafVyq63-77">
          <mxGeometry y="52" width="140" height="26" as="geometry" />
        </mxCell>
        <mxCell id="m--bQhXCmjaqSafVyq63-80" value="Item 3" style="text;strokeColor=none;fillColor=none;align=left;verticalAlign=top;spacingLeft=4;spacingRight=4;overflow=hidden;rotatable=0;points=[[0,0.5],[1,0.5]];portConstraint=eastwest;whiteSpace=wrap;html=1;" vertex="1" parent="m--bQhXCmjaqSafVyq63-77">
          <mxGeometry y="78" width="140" height="26" as="geometry" />
        </mxCell>
        <mxCell id="m--bQhXCmjaqSafVyq63-104" value="dim" style="swimlane;fontStyle=0;childLayout=stackLayout;horizontal=1;startSize=26;fillColor=none;horizontalStack=0;resizeParent=1;resizeParentMax=0;resizeLast=0;collapsible=1;marginBottom=0;html=1;" vertex="1" parent="m--bQhXCmjaqSafVyq63-94">
          <mxGeometry x="390" y="36" width="140" height="104" as="geometry" />
        </mxCell>
        <mxCell id="m--bQhXCmjaqSafVyq63-105" value="Item 1" style="text;strokeColor=none;fillColor=none;align=left;verticalAlign=top;spacingLeft=4;spacingRight=4;overflow=hidden;rotatable=0;points=[[0,0.5],[1,0.5]];portConstraint=eastwest;whiteSpace=wrap;html=1;" vertex="1" parent="m--bQhXCmjaqSafVyq63-104">
          <mxGeometry y="26" width="140" height="26" as="geometry" />
        </mxCell>
        <mxCell id="m--bQhXCmjaqSafVyq63-106" value="Item 2" style="text;strokeColor=none;fillColor=none;align=left;verticalAlign=top;spacingLeft=4;spacingRight=4;overflow=hidden;rotatable=0;points=[[0,0.5],[1,0.5]];portConstraint=eastwest;whiteSpace=wrap;html=1;" vertex="1" parent="m--bQhXCmjaqSafVyq63-104">
          <mxGeometry y="52" width="140" height="26" as="geometry" />
        </mxCell>
        <mxCell id="m--bQhXCmjaqSafVyq63-107" value="Item 3" style="text;strokeColor=none;fillColor=none;align=left;verticalAlign=top;spacingLeft=4;spacingRight=4;overflow=hidden;rotatable=0;points=[[0,0.5],[1,0.5]];portConstraint=eastwest;whiteSpace=wrap;html=1;" vertex="1" parent="m--bQhXCmjaqSafVyq63-104">
          <mxGeometry y="78" width="140" height="26" as="geometry" />
        </mxCell>
        <mxCell id="m--bQhXCmjaqSafVyq63-100" value="dim" style="swimlane;fontStyle=0;childLayout=stackLayout;horizontal=1;startSize=26;fillColor=none;horizontalStack=0;resizeParent=1;resizeParentMax=0;resizeLast=0;collapsible=1;marginBottom=0;html=1;" vertex="1" parent="m--bQhXCmjaqSafVyq63-94">
          <mxGeometry x="20" y="294" width="140" height="104" as="geometry" />
        </mxCell>
        <mxCell id="m--bQhXCmjaqSafVyq63-101" value="Item 1" style="text;strokeColor=none;fillColor=none;align=left;verticalAlign=top;spacingLeft=4;spacingRight=4;overflow=hidden;rotatable=0;points=[[0,0.5],[1,0.5]];portConstraint=eastwest;whiteSpace=wrap;html=1;" vertex="1" parent="m--bQhXCmjaqSafVyq63-100">
          <mxGeometry y="26" width="140" height="26" as="geometry" />
        </mxCell>
        <mxCell id="m--bQhXCmjaqSafVyq63-102" value="Item 2" style="text;strokeColor=none;fillColor=none;align=left;verticalAlign=top;spacingLeft=4;spacingRight=4;overflow=hidden;rotatable=0;points=[[0,0.5],[1,0.5]];portConstraint=eastwest;whiteSpace=wrap;html=1;" vertex="1" parent="m--bQhXCmjaqSafVyq63-100">
          <mxGeometry y="52" width="140" height="26" as="geometry" />
        </mxCell>
        <mxCell id="m--bQhXCmjaqSafVyq63-103" value="Item 3" style="text;strokeColor=none;fillColor=none;align=left;verticalAlign=top;spacingLeft=4;spacingRight=4;overflow=hidden;rotatable=0;points=[[0,0.5],[1,0.5]];portConstraint=eastwest;whiteSpace=wrap;html=1;" vertex="1" parent="m--bQhXCmjaqSafVyq63-100">
          <mxGeometry y="78" width="140" height="26" as="geometry" />
        </mxCell>
        <mxCell id="m--bQhXCmjaqSafVyq63-96" value="dim" style="swimlane;fontStyle=0;childLayout=stackLayout;horizontal=1;startSize=26;fillColor=none;horizontalStack=0;resizeParent=1;resizeParentMax=0;resizeLast=0;collapsible=1;marginBottom=0;html=1;" vertex="1" parent="m--bQhXCmjaqSafVyq63-94">
          <mxGeometry x="400" y="300" width="140" height="104" as="geometry" />
        </mxCell>
        <mxCell id="m--bQhXCmjaqSafVyq63-97" value="Item 1" style="text;strokeColor=none;fillColor=none;align=left;verticalAlign=top;spacingLeft=4;spacingRight=4;overflow=hidden;rotatable=0;points=[[0,0.5],[1,0.5]];portConstraint=eastwest;whiteSpace=wrap;html=1;" vertex="1" parent="m--bQhXCmjaqSafVyq63-96">
          <mxGeometry y="26" width="140" height="26" as="geometry" />
        </mxCell>
        <mxCell id="m--bQhXCmjaqSafVyq63-98" value="Item 2" style="text;strokeColor=none;fillColor=none;align=left;verticalAlign=top;spacingLeft=4;spacingRight=4;overflow=hidden;rotatable=0;points=[[0,0.5],[1,0.5]];portConstraint=eastwest;whiteSpace=wrap;html=1;" vertex="1" parent="m--bQhXCmjaqSafVyq63-96">
          <mxGeometry y="52" width="140" height="26" as="geometry" />
        </mxCell>
        <mxCell id="m--bQhXCmjaqSafVyq63-99" value="Item 3" style="text;strokeColor=none;fillColor=none;align=left;verticalAlign=top;spacingLeft=4;spacingRight=4;overflow=hidden;rotatable=0;points=[[0,0.5],[1,0.5]];portConstraint=eastwest;whiteSpace=wrap;html=1;" vertex="1" parent="m--bQhXCmjaqSafVyq63-96">
          <mxGeometry y="78" width="140" height="26" as="geometry" />
        </mxCell>
        <mxCell id="m--bQhXCmjaqSafVyq63-81" value="dim" style="swimlane;fontStyle=0;childLayout=stackLayout;horizontal=1;startSize=26;fillColor=none;horizontalStack=0;resizeParent=1;resizeParentMax=0;resizeLast=0;collapsible=1;marginBottom=0;html=1;" vertex="1" parent="m--bQhXCmjaqSafVyq63-94">
          <mxGeometry x="30" y="70" width="140" height="104" as="geometry" />
        </mxCell>
        <mxCell id="m--bQhXCmjaqSafVyq63-82" value="Item 1" style="text;strokeColor=none;fillColor=none;align=left;verticalAlign=top;spacingLeft=4;spacingRight=4;overflow=hidden;rotatable=0;points=[[0,0.5],[1,0.5]];portConstraint=eastwest;whiteSpace=wrap;html=1;" vertex="1" parent="m--bQhXCmjaqSafVyq63-81">
          <mxGeometry y="26" width="140" height="26" as="geometry" />
        </mxCell>
        <mxCell id="m--bQhXCmjaqSafVyq63-83" value="Item 2" style="text;strokeColor=none;fillColor=none;align=left;verticalAlign=top;spacingLeft=4;spacingRight=4;overflow=hidden;rotatable=0;points=[[0,0.5],[1,0.5]];portConstraint=eastwest;whiteSpace=wrap;html=1;" vertex="1" parent="m--bQhXCmjaqSafVyq63-81">
          <mxGeometry y="52" width="140" height="26" as="geometry" />
        </mxCell>
        <mxCell id="m--bQhXCmjaqSafVyq63-84" value="Item 3" style="text;strokeColor=none;fillColor=none;align=left;verticalAlign=top;spacingLeft=4;spacingRight=4;overflow=hidden;rotatable=0;points=[[0,0.5],[1,0.5]];portConstraint=eastwest;whiteSpace=wrap;html=1;" vertex="1" parent="m--bQhXCmjaqSafVyq63-81">
          <mxGeometry y="78" width="140" height="26" as="geometry" />
        </mxCell>
        <mxCell id="m--bQhXCmjaqSafVyq63-109" style="edgeStyle=orthogonalEdgeStyle;rounded=0;orthogonalLoop=1;jettySize=auto;html=1;exitX=0.5;exitY=0;exitDx=0;exitDy=0;entryX=0.012;entryY=0.128;entryDx=0;entryDy=0;entryPerimeter=0;" edge="1" parent="m--bQhXCmjaqSafVyq63-94" source="m--bQhXCmjaqSafVyq63-77" target="m--bQhXCmjaqSafVyq63-106">
          <mxGeometry relative="1" as="geometry" />
        </mxCell>
        <mxCell id="m--bQhXCmjaqSafVyq63-116" style="edgeStyle=orthogonalEdgeStyle;rounded=0;orthogonalLoop=1;jettySize=auto;html=1;entryX=0.5;entryY=1;entryDx=0;entryDy=0;exitX=0.5;exitY=0;exitDx=0;exitDy=0;" edge="1" parent="1" source="m--bQhXCmjaqSafVyq63-135" target="m--bQhXCmjaqSafVyq63-19">
          <mxGeometry relative="1" as="geometry">
            <mxPoint x="-35" y="1010" as="sourcePoint" />
          </mxGeometry>
        </mxCell>
        <mxCell id="m--bQhXCmjaqSafVyq63-117" value="Continue writing to old system&lt;div&gt;until after migration is complete&lt;/div&gt;" style="edgeLabel;html=1;align=center;verticalAlign=middle;resizable=0;points=[];" vertex="1" connectable="0" parent="m--bQhXCmjaqSafVyq63-116">
          <mxGeometry x="-0.078" y="1" relative="1" as="geometry">
            <mxPoint y="1" as="offset" />
          </mxGeometry>
        </mxCell>
        <mxCell id="m--bQhXCmjaqSafVyq63-133" style="edgeStyle=orthogonalEdgeStyle;rounded=0;orthogonalLoop=1;jettySize=auto;html=1;exitX=1;exitY=0.5;exitDx=0;exitDy=0;" edge="1" parent="1" source="m--bQhXCmjaqSafVyq63-135" target="m--bQhXCmjaqSafVyq63-118">
          <mxGeometry relative="1" as="geometry">
            <mxPoint x="45" y="1110" as="sourcePoint" />
          </mxGeometry>
        </mxCell>
        <mxCell id="m--bQhXCmjaqSafVyq63-137" style="edgeStyle=orthogonalEdgeStyle;rounded=0;orthogonalLoop=1;jettySize=auto;html=1;entryX=0;entryY=0.5;entryDx=0;entryDy=0;" edge="1" parent="1" source="m--bQhXCmjaqSafVyq63-118" target="m--bQhXCmjaqSafVyq63-136">
          <mxGeometry relative="1" as="geometry" />
        </mxCell>
        <mxCell id="m--bQhXCmjaqSafVyq63-118" value="" style="rounded=0;whiteSpace=wrap;html=1;" vertex="1" parent="1">
          <mxGeometry x="110" y="900" width="360" height="225" as="geometry" />
        </mxCell>
        <mxCell id="m--bQhXCmjaqSafVyq63-124" style="edgeStyle=orthogonalEdgeStyle;rounded=0;orthogonalLoop=1;jettySize=auto;html=1;entryX=0;entryY=0.5;entryDx=0;entryDy=0;exitX=1;exitY=0.5;exitDx=0;exitDy=0;" edge="1" parent="1" source="m--bQhXCmjaqSafVyq63-136" target="m--bQhXCmjaqSafVyq63-123">
          <mxGeometry relative="1" as="geometry" />
        </mxCell>
        <mxCell id="m--bQhXCmjaqSafVyq63-125" style="edgeStyle=orthogonalEdgeStyle;rounded=0;orthogonalLoop=1;jettySize=auto;html=1;entryX=0.5;entryY=1;entryDx=0;entryDy=0;exitX=1;exitY=0.5;exitDx=0;exitDy=0;" edge="1" parent="1" source="m--bQhXCmjaqSafVyq63-123" target="m--bQhXCmjaqSafVyq63-20">
          <mxGeometry relative="1" as="geometry" />
        </mxCell>
        <mxCell id="m--bQhXCmjaqSafVyq63-123" value="ETL into DW&lt;div&gt;(de-normalize data, etc)&lt;/div&gt;" style="shape=process;whiteSpace=wrap;html=1;backgroundOutline=1;" vertex="1" parent="1">
          <mxGeometry x="930" y="897" width="190" height="60" as="geometry" />
        </mxCell>
        <mxCell id="m--bQhXCmjaqSafVyq63-126" value="" style="outlineConnect=0;dashed=0;verticalLabelPosition=bottom;verticalAlign=top;align=center;html=1;shape=mxgraph.aws3.kinesis;fillColor=#F58534;gradientColor=none;" vertex="1" parent="1">
          <mxGeometry x="381" y="957" width="67.5" height="81" as="geometry" />
        </mxCell>
        <mxCell id="m--bQhXCmjaqSafVyq63-127" value="" style="sketch=0;points=[[0,0,0],[0.25,0,0],[0.5,0,0],[0.75,0,0],[1,0,0],[0,1,0],[0.25,1,0],[0.5,1,0],[0.75,1,0],[1,1,0],[0,0.25,0],[0,0.5,0],[0,0.75,0],[1,0.25,0],[1,0.5,0],[1,0.75,0]];outlineConnect=0;fontColor=#232F3E;fillColor=#8C4FFF;strokeColor=#ffffff;dashed=0;verticalLabelPosition=bottom;verticalAlign=top;align=center;html=1;fontSize=12;fontStyle=0;aspect=fixed;shape=mxgraph.aws4.resourceIcon;resIcon=mxgraph.aws4.managed_streaming_for_kafka;" vertex="1" parent="1">
          <mxGeometry x="130" y="960" width="78" height="78" as="geometry" />
        </mxCell>
        <mxCell id="m--bQhXCmjaqSafVyq63-128" value="&lt;div&gt;&lt;div style=&quot;forced-color-adjust: none; color: rgb(0, 0, 0); font-family: Helvetica; font-size: 12px; font-style: normal; font-variant-ligatures: normal; font-variant-caps: normal; font-weight: 400; letter-spacing: normal; orphans: 2; text-align: center; text-indent: 0px; text-transform: none; widows: 2; word-spacing: 0px; -webkit-text-stroke-width: 0px; white-space: normal; background-color: rgb(251, 251, 251); text-decoration-thickness: initial; text-decoration-style: initial; text-decoration-color: initial;&quot;&gt;Handle Steaming with:&lt;/div&gt;&lt;div style=&quot;forced-color-adjust: none; color: rgb(0, 0, 0); font-family: Helvetica; font-size: 12px; font-style: normal; font-variant-ligatures: normal; font-variant-caps: normal; font-weight: 400; letter-spacing: normal; orphans: 2; text-align: center; text-indent: 0px; text-transform: none; widows: 2; word-spacing: 0px; -webkit-text-stroke-width: 0px; white-space: normal; background-color: rgb(251, 251, 251); text-decoration-thickness: initial; text-decoration-style: initial; text-decoration-color: initial;&quot;&gt;- Kinesis&lt;/div&gt;&lt;div style=&quot;forced-color-adjust: none; color: rgb(0, 0, 0); font-family: Helvetica; font-size: 12px; font-style: normal; font-variant-ligatures: normal; font-variant-caps: normal; font-weight: 400; letter-spacing: normal; orphans: 2; text-align: center; text-indent: 0px; text-transform: none; widows: 2; word-spacing: 0px; -webkit-text-stroke-width: 0px; white-space: normal; background-color: rgb(251, 251, 251); text-decoration-thickness: initial; text-decoration-style: initial; text-decoration-color: initial;&quot;&gt;- Kafka&lt;/div&gt;&lt;/div&gt;" style="text;html=1;align=center;verticalAlign=middle;whiteSpace=wrap;rounded=0;" vertex="1" parent="1">
          <mxGeometry x="100" y="950" width="360" height="55" as="geometry" />
        </mxCell>
        <mxCell id="m--bQhXCmjaqSafVyq63-135" value="Data Sources&lt;div&gt;&lt;br&gt;&lt;/div&gt;&lt;div&gt;(Transactions, realtime, etc)&lt;/div&gt;" style="rhombus;whiteSpace=wrap;html=1;" vertex="1" parent="1">
          <mxGeometry x="-167.5" y="905" width="215" height="195" as="geometry" />
        </mxCell>
        <mxCell id="m--bQhXCmjaqSafVyq63-136" value="OLTP" style="swimlane;whiteSpace=wrap;html=1;" vertex="1" parent="1">
          <mxGeometry x="520" y="900" width="360" height="270" as="geometry" />
        </mxCell>
        <mxCell id="m--bQhXCmjaqSafVyq63-121" value="Snowflake for OLTP&lt;div&gt;(Bad idea, but if you insist)&lt;/div&gt;" style="shape=datastore;whiteSpace=wrap;html=1;" vertex="1" parent="m--bQhXCmjaqSafVyq63-136">
          <mxGeometry x="30" y="40" width="170" height="150" as="geometry" />
        </mxCell>
        <mxCell id="m--bQhXCmjaqSafVyq63-130" value="" style="image;aspect=fixed;html=1;points=[];align=center;fontSize=12;image=img/lib/azure2/databases/Azure_Database_PostgreSQL_Server.svg;" vertex="1" parent="m--bQhXCmjaqSafVyq63-136">
          <mxGeometry x="220" y="50" width="120" height="160" as="geometry" />
        </mxCell>
        <mxCell id="m--bQhXCmjaqSafVyq63-131" value="&lt;br&gt;&lt;span style=&quot;color: rgb(0, 0, 0); font-family: Helvetica; font-size: 12px; font-style: normal; font-variant-ligatures: normal; font-variant-caps: normal; font-weight: 400; letter-spacing: normal; orphans: 2; text-align: center; text-indent: 0px; text-transform: none; widows: 2; word-spacing: 0px; -webkit-text-stroke-width: 0px; white-space: normal; background-color: rgb(251, 251, 251); text-decoration-thickness: initial; text-decoration-style: initial; text-decoration-color: initial; display: inline !important; float: none;&quot;&gt;New OLTP System?&lt;/span&gt;&lt;div&gt;- PostgreSQL&lt;br&gt;&lt;div style=&quot;forced-color-adjust: none; color: rgb(0, 0, 0); font-family: Helvetica; font-size: 12px; font-style: normal; font-variant-ligatures: normal; font-variant-caps: normal; font-weight: 400; letter-spacing: normal; orphans: 2; text-align: center; text-indent: 0px; text-transform: none; widows: 2; word-spacing: 0px; -webkit-text-stroke-width: 0px; white-space: normal; background-color: rgb(251, 251, 251); text-decoration-thickness: initial; text-decoration-style: initial; text-decoration-color: initial;&quot;&gt;&lt;br&gt;&lt;/div&gt;&lt;/div&gt;" style="text;html=1;align=center;verticalAlign=middle;whiteSpace=wrap;rounded=0;" vertex="1" parent="m--bQhXCmjaqSafVyq63-136">
          <mxGeometry x="150" y="210" width="160" height="45" as="geometry" />
        </mxCell>
        <mxCell id="m--bQhXCmjaqSafVyq63-138" value="One Time Migration" style="swimlane;whiteSpace=wrap;html=1;" vertex="1" parent="1">
          <mxGeometry x="70" y="250" width="900" height="460" as="geometry" />
        </mxCell>
        <mxCell id="m--bQhXCmjaqSafVyq63-32" value="Structured" style="strokeWidth=2;html=1;shape=mxgraph.flowchart.direct_data;whiteSpace=wrap;" vertex="1" parent="m--bQhXCmjaqSafVyq63-138">
          <mxGeometry x="40" y="89" width="130" height="60" as="geometry" />
        </mxCell>
        <mxCell id="m--bQhXCmjaqSafVyq63-34" value="Semi-Structured" style="strokeWidth=2;html=1;shape=mxgraph.flowchart.direct_data;whiteSpace=wrap;" vertex="1" parent="m--bQhXCmjaqSafVyq63-138">
          <mxGeometry x="50" y="190" width="150" height="60" as="geometry" />
        </mxCell>
        <mxCell id="m--bQhXCmjaqSafVyq63-35" value="Un-Structured" style="strokeWidth=2;html=1;shape=mxgraph.flowchart.direct_data;whiteSpace=wrap;" vertex="1" parent="m--bQhXCmjaqSafVyq63-138">
          <mxGeometry x="40" y="290" width="130" height="60" as="geometry" />
        </mxCell>
        <mxCell id="m--bQhXCmjaqSafVyq63-55" value="Initial S3 Dump" style="swimlane;whiteSpace=wrap;html=1;startSize=23;" vertex="1" parent="m--bQhXCmjaqSafVyq63-138">
          <mxGeometry x="220" y="30" width="110" height="360" as="geometry" />
        </mxCell>
        <mxCell id="m--bQhXCmjaqSafVyq63-51" value="" style="sketch=0;points=[[0,0,0],[0.25,0,0],[0.5,0,0],[0.75,0,0],[1,0,0],[0,1,0],[0.25,1,0],[0.5,1,0],[0.75,1,0],[1,1,0],[0,0.25,0],[0,0.5,0],[0,0.75,0],[1,0.25,0],[1,0.5,0],[1,0.75,0]];outlineConnect=0;fontColor=#232F3E;fillColor=#7AA116;strokeColor=#ffffff;dashed=0;verticalLabelPosition=bottom;verticalAlign=top;align=center;html=1;fontSize=12;fontStyle=0;aspect=fixed;shape=mxgraph.aws4.resourceIcon;resIcon=mxgraph.aws4.s3;" vertex="1" parent="m--bQhXCmjaqSafVyq63-55">
          <mxGeometry x="20" y="51" width="78" height="78" as="geometry" />
        </mxCell>
        <mxCell id="m--bQhXCmjaqSafVyq63-53" value="" style="sketch=0;points=[[0,0,0],[0.25,0,0],[0.5,0,0],[0.75,0,0],[1,0,0],[0,1,0],[0.25,1,0],[0.5,1,0],[0.75,1,0],[1,1,0],[0,0.25,0],[0,0.5,0],[0,0.75,0],[1,0.25,0],[1,0.5,0],[1,0.75,0]];outlineConnect=0;fontColor=#232F3E;fillColor=#7AA116;strokeColor=#ffffff;dashed=0;verticalLabelPosition=bottom;verticalAlign=top;align=center;html=1;fontSize=12;fontStyle=0;aspect=fixed;shape=mxgraph.aws4.resourceIcon;resIcon=mxgraph.aws4.s3;" vertex="1" parent="m--bQhXCmjaqSafVyq63-55">
          <mxGeometry x="20" y="160" width="78" height="78" as="geometry" />
        </mxCell>
        <mxCell id="m--bQhXCmjaqSafVyq63-52" value="" style="sketch=0;points=[[0,0,0],[0.25,0,0],[0.5,0,0],[0.75,0,0],[1,0,0],[0,1,0],[0.25,1,0],[0.5,1,0],[0.75,1,0],[1,1,0],[0,0.25,0],[0,0.5,0],[0,0.75,0],[1,0.25,0],[1,0.5,0],[1,0.75,0]];outlineConnect=0;fontColor=#232F3E;fillColor=#7AA116;strokeColor=#ffffff;dashed=0;verticalLabelPosition=bottom;verticalAlign=top;align=center;html=1;fontSize=12;fontStyle=0;aspect=fixed;shape=mxgraph.aws4.resourceIcon;resIcon=mxgraph.aws4.s3;" vertex="1" parent="m--bQhXCmjaqSafVyq63-55">
          <mxGeometry x="20" y="260" width="78" height="78" as="geometry" />
        </mxCell>
        <mxCell id="m--bQhXCmjaqSafVyq63-57" style="edgeStyle=orthogonalEdgeStyle;rounded=0;orthogonalLoop=1;jettySize=auto;html=1;exitX=1;exitY=0.5;exitDx=0;exitDy=0;exitPerimeter=0;entryX=0;entryY=0.5;entryDx=0;entryDy=0;entryPerimeter=0;" edge="1" parent="m--bQhXCmjaqSafVyq63-138" source="m--bQhXCmjaqSafVyq63-32" target="m--bQhXCmjaqSafVyq63-51">
          <mxGeometry relative="1" as="geometry" />
        </mxCell>
        <mxCell id="m--bQhXCmjaqSafVyq63-58" style="edgeStyle=orthogonalEdgeStyle;rounded=0;orthogonalLoop=1;jettySize=auto;html=1;entryX=0;entryY=0.5;entryDx=0;entryDy=0;entryPerimeter=0;" edge="1" parent="m--bQhXCmjaqSafVyq63-138" source="m--bQhXCmjaqSafVyq63-34" target="m--bQhXCmjaqSafVyq63-53">
          <mxGeometry relative="1" as="geometry" />
        </mxCell>
        <mxCell id="m--bQhXCmjaqSafVyq63-59" style="edgeStyle=orthogonalEdgeStyle;rounded=0;orthogonalLoop=1;jettySize=auto;html=1;exitX=1;exitY=0.5;exitDx=0;exitDy=0;exitPerimeter=0;entryX=0;entryY=0.5;entryDx=0;entryDy=0;entryPerimeter=0;" edge="1" parent="m--bQhXCmjaqSafVyq63-138" source="m--bQhXCmjaqSafVyq63-35" target="m--bQhXCmjaqSafVyq63-52">
          <mxGeometry relative="1" as="geometry" />
        </mxCell>
        <mxCell id="m--bQhXCmjaqSafVyq63-63" value="Data Processing&lt;div&gt;&lt;br&gt;&lt;/div&gt;&lt;div&gt;Flattening, structuring data&lt;/div&gt;" style="shape=process;whiteSpace=wrap;html=1;backgroundOutline=1;" vertex="1" parent="m--bQhXCmjaqSafVyq63-138">
          <mxGeometry x="370" y="255" width="155" height="90" as="geometry" />
        </mxCell>
        <mxCell id="m--bQhXCmjaqSafVyq63-64" style="edgeStyle=orthogonalEdgeStyle;rounded=0;orthogonalLoop=1;jettySize=auto;html=1;entryX=0;entryY=0.5;entryDx=0;entryDy=0;" edge="1" parent="m--bQhXCmjaqSafVyq63-138" source="m--bQhXCmjaqSafVyq63-53" target="m--bQhXCmjaqSafVyq63-63">
          <mxGeometry relative="1" as="geometry" />
        </mxCell>
        <mxCell id="m--bQhXCmjaqSafVyq63-65" style="edgeStyle=orthogonalEdgeStyle;rounded=0;orthogonalLoop=1;jettySize=auto;html=1;entryX=0;entryY=0.5;entryDx=0;entryDy=0;" edge="1" parent="m--bQhXCmjaqSafVyq63-138" source="m--bQhXCmjaqSafVyq63-52" target="m--bQhXCmjaqSafVyq63-63">
          <mxGeometry relative="1" as="geometry" />
        </mxCell>
        <mxCell id="m--bQhXCmjaqSafVyq63-71" value="Glue" style="outlineConnect=0;dashed=0;verticalLabelPosition=bottom;verticalAlign=top;align=center;html=1;shape=mxgraph.aws3.glue;fillColor=#F58534;gradientColor=none;" vertex="1" parent="m--bQhXCmjaqSafVyq63-138">
          <mxGeometry x="380" y="330" width="82.5" height="99" as="geometry" />
        </mxCell>
        <mxCell id="m--bQhXCmjaqSafVyq63-43" value="External Table&lt;div&gt;&lt;br&gt;&lt;div&gt;Perform necessary (basic) schema adjustments&lt;/div&gt;&lt;/div&gt;" style="shape=process;whiteSpace=wrap;html=1;backgroundOutline=1;" vertex="1" parent="m--bQhXCmjaqSafVyq63-138">
          <mxGeometry x="375" y="81" width="155" height="80" as="geometry" />
        </mxCell>
        <mxCell id="m--bQhXCmjaqSafVyq63-62" style="edgeStyle=orthogonalEdgeStyle;rounded=0;orthogonalLoop=1;jettySize=auto;html=1;entryX=0;entryY=0.5;entryDx=0;entryDy=0;" edge="1" parent="m--bQhXCmjaqSafVyq63-138" source="m--bQhXCmjaqSafVyq63-51" target="m--bQhXCmjaqSafVyq63-43">
          <mxGeometry relative="1" as="geometry" />
        </mxCell>
        <mxCell id="m--bQhXCmjaqSafVyq63-70" value="S3 Bucket Transformed" style="sketch=0;points=[[0,0,0],[0.25,0,0],[0.5,0,0],[0.75,0,0],[1,0,0],[0,1,0],[0.25,1,0],[0.5,1,0],[0.75,1,0],[1,1,0],[0,0.25,0],[0,0.5,0],[0,0.75,0],[1,0.25,0],[1,0.5,0],[1,0.75,0]];outlineConnect=0;fontColor=#232F3E;fillColor=#7AA116;strokeColor=#ffffff;dashed=0;verticalLabelPosition=bottom;verticalAlign=top;align=center;html=1;fontSize=12;fontStyle=0;aspect=fixed;shape=mxgraph.aws4.resourceIcon;resIcon=mxgraph.aws4.s3;" vertex="1" parent="m--bQhXCmjaqSafVyq63-138">
          <mxGeometry x="570" y="261" width="78" height="78" as="geometry" />
        </mxCell>
        <mxCell id="m--bQhXCmjaqSafVyq63-72" style="edgeStyle=orthogonalEdgeStyle;rounded=0;orthogonalLoop=1;jettySize=auto;html=1;exitX=1;exitY=0.5;exitDx=0;exitDy=0;entryX=0;entryY=0.5;entryDx=0;entryDy=0;entryPerimeter=0;" edge="1" parent="m--bQhXCmjaqSafVyq63-138" source="m--bQhXCmjaqSafVyq63-63" target="m--bQhXCmjaqSafVyq63-70">
          <mxGeometry relative="1" as="geometry" />
        </mxCell>
        <mxCell id="m--bQhXCmjaqSafVyq63-73" value="External Table&lt;div&gt;&lt;br&gt;&lt;div&gt;Perform necessary (basic) schema adjustments&lt;/div&gt;&lt;/div&gt;" style="shape=process;whiteSpace=wrap;html=1;backgroundOutline=1;" vertex="1" parent="m--bQhXCmjaqSafVyq63-138">
          <mxGeometry x="690" y="260" width="210" height="80" as="geometry" />
        </mxCell>
        <mxCell id="m--bQhXCmjaqSafVyq63-74" style="edgeStyle=orthogonalEdgeStyle;rounded=0;orthogonalLoop=1;jettySize=auto;html=1;entryX=0;entryY=0.5;entryDx=0;entryDy=0;" edge="1" parent="m--bQhXCmjaqSafVyq63-138" source="m--bQhXCmjaqSafVyq63-70" target="m--bQhXCmjaqSafVyq63-73">
          <mxGeometry relative="1" as="geometry" />
        </mxCell>
        <mxCell id="m--bQhXCmjaqSafVyq63-140" style="edgeStyle=orthogonalEdgeStyle;rounded=0;orthogonalLoop=1;jettySize=auto;html=1;exitX=0.5;exitY=0;exitDx=0;exitDy=0;entryX=1;entryY=0.5;entryDx=0;entryDy=0;entryPerimeter=0;" edge="1" parent="1" source="m--bQhXCmjaqSafVyq63-123" target="m--bQhXCmjaqSafVyq63-41">
          <mxGeometry relative="1" as="geometry" />
        </mxCell>
        <mxCell id="m--bQhXCmjaqSafVyq63-155" value="Timeline: 12 - 24 months" style="swimlane;whiteSpace=wrap;html=1;fontSize=14;" vertex="1" parent="1">
          <mxGeometry x="-160" y="1340" width="1520" height="510" as="geometry" />
        </mxCell>
        <mxCell id="m--bQhXCmjaqSafVyq63-172" value="OLTP + Snowflake Integration: 3 - 6 months" style="swimlane;whiteSpace=wrap;html=1;fontSize=14;" vertex="1" parent="m--bQhXCmjaqSafVyq63-155">
          <mxGeometry x="890" y="60" width="310" height="130" as="geometry" />
        </mxCell>
        <mxCell id="m--bQhXCmjaqSafVyq63-178" style="edgeStyle=orthogonalEdgeStyle;rounded=0;orthogonalLoop=1;jettySize=auto;html=1;exitX=1;exitY=0.5;exitDx=0;exitDy=0;entryX=0;entryY=0.5;entryDx=0;entryDy=0;fontSize=14;" edge="1" parent="m--bQhXCmjaqSafVyq63-172" source="m--bQhXCmjaqSafVyq63-173" target="m--bQhXCmjaqSafVyq63-177">
          <mxGeometry relative="1" as="geometry" />
        </mxCell>
        <mxCell id="m--bQhXCmjaqSafVyq63-173" value="Testing ETL&lt;div style=&quot;font-size: 14px;&quot;&gt;OLTP =&amp;gt; DW&lt;/div&gt;" style="rounded=0;whiteSpace=wrap;html=1;fontSize=14;" vertex="1" parent="m--bQhXCmjaqSafVyq63-172">
          <mxGeometry x="20" y="50" width="120" height="60" as="geometry" />
        </mxCell>
        <mxCell id="m--bQhXCmjaqSafVyq63-177" value="Stable&lt;div style=&quot;font-size: 14px;&quot;&gt;End to End&lt;/div&gt;&lt;div style=&quot;font-size: 14px;&quot;&gt;New Cloud System&lt;/div&gt;" style="rounded=0;whiteSpace=wrap;html=1;fontSize=14;" vertex="1" parent="m--bQhXCmjaqSafVyq63-172">
          <mxGeometry x="180" y="50" width="120" height="60" as="geometry" />
        </mxCell>
        <mxCell id="m--bQhXCmjaqSafVyq63-174" style="edgeStyle=orthogonalEdgeStyle;rounded=0;orthogonalLoop=1;jettySize=auto;html=1;entryX=0;entryY=0.5;entryDx=0;entryDy=0;fontSize=14;" edge="1" parent="m--bQhXCmjaqSafVyq63-155" source="m--bQhXCmjaqSafVyq63-164" target="m--bQhXCmjaqSafVyq63-173">
          <mxGeometry relative="1" as="geometry" />
        </mxCell>
        <mxCell id="m--bQhXCmjaqSafVyq63-179" value="Decommission Legacy System: 3-? months" style="swimlane;whiteSpace=wrap;html=1;fontSize=14;" vertex="1" parent="m--bQhXCmjaqSafVyq63-155">
          <mxGeometry x="940" y="280" width="560" height="120" as="geometry" />
        </mxCell>
        <mxCell id="m--bQhXCmjaqSafVyq63-180" style="edgeStyle=orthogonalEdgeStyle;rounded=0;orthogonalLoop=1;jettySize=auto;html=1;exitX=1;exitY=0.5;exitDx=0;exitDy=0;entryX=0;entryY=0.5;entryDx=0;entryDy=0;fontSize=14;" edge="1" parent="m--bQhXCmjaqSafVyq63-179" source="m--bQhXCmjaqSafVyq63-181" target="m--bQhXCmjaqSafVyq63-182">
          <mxGeometry relative="1" as="geometry" />
        </mxCell>
        <mxCell id="m--bQhXCmjaqSafVyq63-181" value="End Writing to Legacy Systems" style="rounded=0;whiteSpace=wrap;html=1;fontSize=14;" vertex="1" parent="m--bQhXCmjaqSafVyq63-179">
          <mxGeometry x="160" y="40" width="120" height="60" as="geometry" />
        </mxCell>
        <mxCell id="m--bQhXCmjaqSafVyq63-187" style="edgeStyle=orthogonalEdgeStyle;rounded=0;orthogonalLoop=1;jettySize=auto;html=1;entryX=0;entryY=0.5;entryDx=0;entryDy=0;fontSize=14;" edge="1" parent="m--bQhXCmjaqSafVyq63-179" source="m--bQhXCmjaqSafVyq63-182" target="m--bQhXCmjaqSafVyq63-186">
          <mxGeometry relative="1" as="geometry" />
        </mxCell>
        <mxCell id="m--bQhXCmjaqSafVyq63-182" value="Decommission Legacy Data Storage" style="rounded=0;whiteSpace=wrap;html=1;fontSize=14;" vertex="1" parent="m--bQhXCmjaqSafVyq63-179">
          <mxGeometry x="300" y="40" width="120" height="60" as="geometry" />
        </mxCell>
        <mxCell id="m--bQhXCmjaqSafVyq63-186" value="Decommission Legacy Data Sources" style="rounded=0;whiteSpace=wrap;html=1;fontSize=14;" vertex="1" parent="m--bQhXCmjaqSafVyq63-179">
          <mxGeometry x="440" y="40" width="120" height="60" as="geometry" />
        </mxCell>
        <mxCell id="m--bQhXCmjaqSafVyq63-199" style="edgeStyle=orthogonalEdgeStyle;rounded=0;orthogonalLoop=1;jettySize=auto;html=1;entryX=0;entryY=0.5;entryDx=0;entryDy=0;fontSize=14;" edge="1" parent="m--bQhXCmjaqSafVyq63-179" source="m--bQhXCmjaqSafVyq63-188" target="m--bQhXCmjaqSafVyq63-181">
          <mxGeometry relative="1" as="geometry" />
        </mxCell>
        <mxCell id="m--bQhXCmjaqSafVyq63-188" value="Inform Teams about upcoming legacy shutdown" style="rounded=0;whiteSpace=wrap;html=1;fontSize=14;" vertex="1" parent="m--bQhXCmjaqSafVyq63-179">
          <mxGeometry x="20" y="40" width="120" height="60" as="geometry" />
        </mxCell>
        <mxCell id="m--bQhXCmjaqSafVyq63-190" style="edgeStyle=orthogonalEdgeStyle;rounded=0;orthogonalLoop=1;jettySize=auto;html=1;entryX=0;entryY=0.5;entryDx=0;entryDy=0;fontSize=14;" edge="1" parent="m--bQhXCmjaqSafVyq63-155" source="m--bQhXCmjaqSafVyq63-177" target="m--bQhXCmjaqSafVyq63-188">
          <mxGeometry relative="1" as="geometry">
            <Array as="points">
              <mxPoint x="1240" y="140" />
              <mxPoint x="1240" y="245" />
              <mxPoint x="930" y="245" />
              <mxPoint x="930" y="350" />
            </Array>
          </mxGeometry>
        </mxCell>
        <mxCell id="m--bQhXCmjaqSafVyq63-191" value="Data Migration 6-10 months" style="swimlane;whiteSpace=wrap;html=1;fontSize=14;" vertex="1" parent="m--bQhXCmjaqSafVyq63-155">
          <mxGeometry x="15" y="50" width="835" height="200" as="geometry" />
        </mxCell>
        <mxCell id="m--bQhXCmjaqSafVyq63-149" value="Stable Snowflake&lt;div style=&quot;font-size: 14px;&quot;&gt;Data Warehouse with existing Data&lt;/div&gt;" style="rounded=0;whiteSpace=wrap;html=1;fontSize=14;" vertex="1" parent="m--bQhXCmjaqSafVyq63-191">
          <mxGeometry x="715" y="85" width="120" height="60" as="geometry" />
        </mxCell>
        <mxCell id="m--bQhXCmjaqSafVyq63-145" value="Data Migration" style="rounded=0;whiteSpace=wrap;html=1;fontSize=14;" vertex="1" parent="m--bQhXCmjaqSafVyq63-191">
          <mxGeometry x="575" y="85" width="120" height="60" as="geometry" />
        </mxCell>
        <mxCell id="m--bQhXCmjaqSafVyq63-144" value="Testing" style="rounded=0;whiteSpace=wrap;html=1;fontSize=14;" vertex="1" parent="m--bQhXCmjaqSafVyq63-191">
          <mxGeometry x="430" y="85" width="120" height="60" as="geometry" />
        </mxCell>
        <mxCell id="m--bQhXCmjaqSafVyq63-143" value="Implementation" style="rounded=0;whiteSpace=wrap;html=1;fontSize=14;" vertex="1" parent="m--bQhXCmjaqSafVyq63-191">
          <mxGeometry x="285" y="85" width="120" height="60" as="geometry" />
        </mxCell>
        <mxCell id="m--bQhXCmjaqSafVyq63-151" value="Ensure Regulation Compliance" style="rounded=0;whiteSpace=wrap;html=1;fontSize=14;" vertex="1" parent="m--bQhXCmjaqSafVyq63-191">
          <mxGeometry x="145" y="85" width="120" height="60" as="geometry" />
        </mxCell>
        <mxCell id="m--bQhXCmjaqSafVyq63-142" value="Design" style="rounded=0;whiteSpace=wrap;html=1;fontSize=14;" vertex="1" parent="m--bQhXCmjaqSafVyq63-191">
          <mxGeometry y="85" width="120" height="60" as="geometry" />
        </mxCell>
        <mxCell id="m--bQhXCmjaqSafVyq63-150" style="edgeStyle=orthogonalEdgeStyle;rounded=0;orthogonalLoop=1;jettySize=auto;html=1;exitX=1;exitY=0.5;exitDx=0;exitDy=0;entryX=0;entryY=0.5;entryDx=0;entryDy=0;fontSize=14;" edge="1" parent="m--bQhXCmjaqSafVyq63-191" source="m--bQhXCmjaqSafVyq63-145" target="m--bQhXCmjaqSafVyq63-149">
          <mxGeometry relative="1" as="geometry" />
        </mxCell>
        <mxCell id="m--bQhXCmjaqSafVyq63-148" style="edgeStyle=orthogonalEdgeStyle;rounded=0;orthogonalLoop=1;jettySize=auto;html=1;exitX=1;exitY=0.5;exitDx=0;exitDy=0;entryX=0;entryY=0.5;entryDx=0;entryDy=0;fontSize=14;" edge="1" parent="m--bQhXCmjaqSafVyq63-191" source="m--bQhXCmjaqSafVyq63-144" target="m--bQhXCmjaqSafVyq63-145">
          <mxGeometry relative="1" as="geometry" />
        </mxCell>
        <mxCell id="m--bQhXCmjaqSafVyq63-147" style="edgeStyle=orthogonalEdgeStyle;rounded=0;orthogonalLoop=1;jettySize=auto;html=1;exitX=1;exitY=0.5;exitDx=0;exitDy=0;entryX=0;entryY=0.5;entryDx=0;entryDy=0;fontSize=14;" edge="1" parent="m--bQhXCmjaqSafVyq63-191" source="m--bQhXCmjaqSafVyq63-143" target="m--bQhXCmjaqSafVyq63-144">
          <mxGeometry relative="1" as="geometry" />
        </mxCell>
        <mxCell id="m--bQhXCmjaqSafVyq63-153" style="edgeStyle=orthogonalEdgeStyle;rounded=0;orthogonalLoop=1;jettySize=auto;html=1;entryX=0;entryY=0.5;entryDx=0;entryDy=0;fontSize=14;" edge="1" parent="m--bQhXCmjaqSafVyq63-191" source="m--bQhXCmjaqSafVyq63-151" target="m--bQhXCmjaqSafVyq63-143">
          <mxGeometry relative="1" as="geometry" />
        </mxCell>
        <mxCell id="m--bQhXCmjaqSafVyq63-152" style="edgeStyle=orthogonalEdgeStyle;rounded=0;orthogonalLoop=1;jettySize=auto;html=1;entryX=0;entryY=0.5;entryDx=0;entryDy=0;fontSize=14;" edge="1" parent="m--bQhXCmjaqSafVyq63-191" source="m--bQhXCmjaqSafVyq63-142" target="m--bQhXCmjaqSafVyq63-151">
          <mxGeometry relative="1" as="geometry" />
        </mxCell>
        <mxCell id="m--bQhXCmjaqSafVyq63-176" style="edgeStyle=orthogonalEdgeStyle;rounded=0;orthogonalLoop=1;jettySize=auto;html=1;exitX=1;exitY=0.5;exitDx=0;exitDy=0;entryX=0;entryY=0.5;entryDx=0;entryDy=0;fontSize=14;" edge="1" parent="m--bQhXCmjaqSafVyq63-155" source="m--bQhXCmjaqSafVyq63-149" target="m--bQhXCmjaqSafVyq63-173">
          <mxGeometry relative="1" as="geometry" />
        </mxCell>
        <mxCell id="m--bQhXCmjaqSafVyq63-197" value="OLTP Migration 6-10 months" style="swimlane;whiteSpace=wrap;html=1;fontSize=14;" vertex="1" parent="m--bQhXCmjaqSafVyq63-155">
          <mxGeometry x="15" y="280" width="835" height="200" as="geometry" />
        </mxCell>
        <mxCell id="m--bQhXCmjaqSafVyq63-160" value="Design" style="rounded=0;whiteSpace=wrap;html=1;fontSize=14;" vertex="1" parent="m--bQhXCmjaqSafVyq63-197">
          <mxGeometry y="80" width="120" height="60" as="geometry" />
        </mxCell>
        <mxCell id="m--bQhXCmjaqSafVyq63-165" value="Ensure Regulation Compliance" style="rounded=0;whiteSpace=wrap;html=1;fontSize=14;" vertex="1" parent="m--bQhXCmjaqSafVyq63-197">
          <mxGeometry x="135" y="80" width="120" height="60" as="geometry" />
        </mxCell>
        <mxCell id="m--bQhXCmjaqSafVyq63-161" value="Implementation" style="rounded=0;whiteSpace=wrap;html=1;fontSize=14;" vertex="1" parent="m--bQhXCmjaqSafVyq63-197">
          <mxGeometry x="275" y="80" width="120" height="60" as="geometry" />
        </mxCell>
        <mxCell id="m--bQhXCmjaqSafVyq63-162" value="Testing" style="rounded=0;whiteSpace=wrap;html=1;fontSize=14;" vertex="1" parent="m--bQhXCmjaqSafVyq63-197">
          <mxGeometry x="415" y="80" width="120" height="60" as="geometry" />
        </mxCell>
        <mxCell id="m--bQhXCmjaqSafVyq63-164" value="Stable OLTP Systems" style="rounded=0;whiteSpace=wrap;html=1;fontSize=14;" vertex="1" parent="m--bQhXCmjaqSafVyq63-197">
          <mxGeometry x="715" y="80" width="120" height="60" as="geometry" />
        </mxCell>
        <mxCell id="m--bQhXCmjaqSafVyq63-159" style="edgeStyle=orthogonalEdgeStyle;rounded=0;orthogonalLoop=1;jettySize=auto;html=1;entryX=0;entryY=0.5;entryDx=0;entryDy=0;fontSize=14;" edge="1" parent="m--bQhXCmjaqSafVyq63-197" source="m--bQhXCmjaqSafVyq63-160" target="m--bQhXCmjaqSafVyq63-165">
          <mxGeometry relative="1" as="geometry" />
        </mxCell>
        <mxCell id="m--bQhXCmjaqSafVyq63-167" style="edgeStyle=orthogonalEdgeStyle;rounded=0;orthogonalLoop=1;jettySize=auto;html=1;entryX=0;entryY=0.5;entryDx=0;entryDy=0;fontSize=14;" edge="1" parent="m--bQhXCmjaqSafVyq63-197" source="m--bQhXCmjaqSafVyq63-165" target="m--bQhXCmjaqSafVyq63-161">
          <mxGeometry relative="1" as="geometry" />
        </mxCell>
        <mxCell id="m--bQhXCmjaqSafVyq63-168" style="edgeStyle=orthogonalEdgeStyle;rounded=0;orthogonalLoop=1;jettySize=auto;html=1;exitX=1;exitY=0.5;exitDx=0;exitDy=0;entryX=0;entryY=0.5;entryDx=0;entryDy=0;fontSize=14;" edge="1" parent="m--bQhXCmjaqSafVyq63-197" source="m--bQhXCmjaqSafVyq63-161" target="m--bQhXCmjaqSafVyq63-162">
          <mxGeometry relative="1" as="geometry" />
        </mxCell>
        <mxCell id="m--bQhXCmjaqSafVyq63-171" style="edgeStyle=orthogonalEdgeStyle;rounded=0;orthogonalLoop=1;jettySize=auto;html=1;entryX=0;entryY=0.5;entryDx=0;entryDy=0;fontSize=14;" edge="1" parent="m--bQhXCmjaqSafVyq63-197" source="m--bQhXCmjaqSafVyq63-162" target="m--bQhXCmjaqSafVyq63-164">
          <mxGeometry relative="1" as="geometry" />
        </mxCell>
        <mxCell id="m--bQhXCmjaqSafVyq63-198" value="&lt;h1 style=&quot;margin-top: 0px; font-size: 14px;&quot;&gt;Timeline&lt;/h1&gt;&lt;div style=&quot;font-size: 14px;&quot;&gt;Timeline is contingent on factors like number of developers, strictness of regulation, complexity of data, etc&lt;/div&gt;" style="text;html=1;whiteSpace=wrap;overflow=hidden;rounded=0;fontSize=14;" vertex="1" parent="1">
          <mxGeometry x="-160" y="1850" width="655" height="70" as="geometry" />
        </mxCell>
        <mxCell id="m--bQhXCmjaqSafVyq63-201" style="edgeStyle=orthogonalEdgeStyle;rounded=0;orthogonalLoop=1;jettySize=auto;html=1;exitX=0.5;exitY=1;exitDx=0;exitDy=0;entryX=0.5;entryY=0;entryDx=0;entryDy=0;entryPerimeter=0;" edge="1" parent="1" source="m--bQhXCmjaqSafVyq63-55" target="m--bQhXCmjaqSafVyq63-41">
          <mxGeometry relative="1" as="geometry" />
        </mxCell>
        <mxCell id="m--bQhXCmjaqSafVyq63-202" value="Batches" style="strokeWidth=2;html=1;shape=mxgraph.flowchart.multi-document;whiteSpace=wrap;" vertex="1" parent="1">
          <mxGeometry x="133.5" y="1055" width="88" height="60" as="geometry" />
        </mxCell>
        <mxCell id="m--bQhXCmjaqSafVyq63-203" style="edgeStyle=orthogonalEdgeStyle;rounded=0;orthogonalLoop=1;jettySize=auto;html=1;entryX=0;entryY=0.5;entryDx=0;entryDy=0;" edge="1" parent="1" source="m--bQhXCmjaqSafVyq63-73" target="m--bQhXCmjaqSafVyq63-20">
          <mxGeometry relative="1" as="geometry" />
        </mxCell>
      </root>
    </mxGraphModel>
  </diagram>
</mxfile>
